<?xml version="1.0" encoding="UTF-8"?>
<svg id="Laag_1" data-name="Laag 1" xmlns="http://www.w3.org/2000/svg" viewBox="0 0 335.1 198.19">
  <defs>
    <style>
      .cls-1 {
        fill: url(#grad1);
      }
    </style>
    <linearGradient id="grad1" gradientTransform="rotate(31.87)">
      <stop offset="0%" style="stop-color:#06b4f9;stop-opacity:1" />
      <stop offset="100%" style="stop-color:#4e40fc;stop-opacity:1" />
    </linearGradient>
  </defs>
  <polygon class="cls-1" points="98.06 0 129.42 46.97 131.35 46.97 161.81 0 172.77 0 204 46.97 205.16 46.97 224.65 18.37 237.16 0 298.06 0 205.29 141.94 204.13 141.94 168.13 86.84 166.95 87.1 131.1 141.94 129.94 141.94 71.1 52 58.97 52 129.81 159.87 130.97 159.87 166.95 104.9 168 105.03 204 159.87 205.16 159.87 311.1 0 335.1 0 205.16 198.19 204 198.19 167.42 142.58 130.97 198.19 129.81 198.19 20.52 31.61 82.19 31.61 129.81 104.13 130.84 104.13 166.95 48.9 168.13 48.9 203.87 103.87 205.03 103.87 259.23 21.03 246.97 21.03 205.16 84.77 204 84.77 168.13 29.68 166.95 29.68 130.97 84.9 129.94 84.77 87.74 20.9 13.16 20.9 0 0 98.06 0"/>
</svg>